<?xml version="1.0" encoding="utf-8"?>
<svg width="800px" height="800px" viewBox="0 0 15 15" fill="none" xmlns="http://www.w3.org/2000/svg">
  <path d="M 7.5 2.113 C 5.666 2.113 4.11 3.462 3.851 5.277 L 3.842 5.342 C 3.693 6.381 3.99 7.368 4.576 8.126 C 4.933 8.587 5.172 9.028 5.172 9.469 L 5.172 10.958 C 5.172 11.215 5.381 11.423 5.638 11.423 L 9.362 11.423 C 9.619 11.423 9.828 11.215 9.828 10.958 L 9.828 9.469 C 9.828 9.028 10.066 8.587 10.424 8.126 C 11.01 7.368 11.306 6.381 11.158 5.342 L 11.149 5.277 C 10.89 3.462 9.334 2.113 7.5 2.113 Z" fill="#ffffff" style=""/>
  <path d="M 6.103 13.285 L 8.897 13.285 L 8.897 12.354 L 6.103 12.354 L 6.103 13.285 Z" fill="#ffffff" style=""/>
</svg>